<svg clip-rule="evenodd" fill-rule="evenodd" stroke-linejoin="round" stroke-miterlimit="2" viewBox="0 0 64 64" xmlns="http://www.w3.org/2000/svg"><path d="m-1216-256h1280v800h-1280z" fill="none"/><path d="m737.049 328.389c1.157-.296 2.369.212 2.97 1.243.064.051.087.09.087.09s5.1 8.859-.677 23.06c-2.148 5.279-2.823 12.018-1.441 17.41.264 1.044-.12 2.144-.974 2.799-.855.654-2.017.738-2.956.212-5.368-3.112-12.031-9.407-12.037-21.203-.005-11.496 6.474-21.25 15.028-23.611z" transform="matrix(.63831709353 .3685322938 -.3685322938 .63831709353 -302.67971105327 -465.42191750573)"/><path d="m736.986 328.407c1.189-.31 2.44.21 3.059 1.272.048.022.061.043.061.043s5.1 8.859-.677 23.06c-2.168 5.329-2.835 12.145-1.401 17.562.264 1.013-.1 2.085-.927 2.728-.826.642-1.955.731-2.871.225-5.398-3.073-12.203-9.376-12.209-21.297-.005-11.468 6.442-21.202 14.965-23.593z" transform="matrix(-.63831709353 -.3685322938 .3685322938 -.63831709353 384.51969779017 530.49301047206)"/><path d="m792.011 368.377c.87-.011 1.627-.598 1.856-1.437.038-.058.048-.095.048-.095s1.941-7.281-4.881-16.288c-2.528-3.338-4.29-7.987-4.346-12.08-.015-.801-.504-1.516-1.246-1.82-.741-.304-1.592-.138-2.165.422-3.217 3.247-6.725 8.988-4.487 17.355 2.191 8.193 8.674 13.904 15.221 13.943zm4.539-4.377c.775.444 1.412.63 2.329.474-.387.925-.96 1.609-1.508 2.095-.25.197-.595.224-.872.068-.278-.155-.435-.463-.397-.779.025-.504.146-1.103.448-1.858zm3.45-25.584c-7.222 5.296-7.278 13.07-7.571 12.683-6.822-9.008-5.004-16.508-5.004-16.508s.011-.041.029-.108c.229-.839.98-1.431 1.85-1.456 3.879.046 7.738 2.053 10.696 5.389z" fill="#404040" transform="matrix(1.00000106711 0 0 1.00000106711 -768.041288613 -319.2597087628)"/></svg>